<?xml version="1.0" encoding="UTF-8" standalone="no"?>
<!DOCTYPE svg PUBLIC "-//W3C//DTD SVG 1.1//EN" "http://www.w3.org/Graphics/SVG/1.1/DTD/svg11.dtd">
<svg width="100%" height="100%" viewBox="0 0 516 67" version="1.1" xmlns="http://www.w3.org/2000/svg" xmlns:xlink="http://www.w3.org/1999/xlink" xml:space="preserve" xmlns:serif="http://www.serif.com/" style="fill-rule:evenodd;clip-rule:evenodd;stroke-linejoin:round;stroke-miterlimit:2;">
    <g transform="matrix(1,0,0,1,-254.26,-330.81)">
        <path d="M621.91,330.81C618.67,330.81 615.96,333.51 615.96,336.75C615.96,340.08 618.67,342.79 621.91,342.79C625.24,342.79 627.94,340.08 627.94,336.75C627.94,333.51 625.24,330.81 621.91,330.81ZM676.39,330.81C667.12,330.81 661.81,334.23 658.93,337.12C655.6,340.54 653.8,344.94 653.8,349.62C653.89,361.96 666.31,365.65 674.59,368.62C683.77,371.95 688,374.38 688,378.16C688,381.31 686.11,383.56 683.59,384.73C680.35,386.26 677.02,385.18 673.96,385C670.99,384.82 668.47,386.89 668.47,390.67C668.47,395.26 674.77,397.06 679.45,397.06C693.76,397.06 699.97,387.79 699.97,378.88C699.97,367.81 689.8,362.95 678.28,358.54C668.92,354.94 665.77,352.5 665.77,349.62C665.77,345.21 670,342.06 676.03,342.06C682.96,342.06 686.74,345.84 688.36,347.29C690.61,349.27 693.85,349.54 696.01,346.84C697.63,344.77 697.9,341.89 696.28,339.72C693.94,336.39 686.92,330.81 676.39,330.81ZM260.21,332.43C256.96,332.43 254.26,335.13 254.26,338.37L254.26,389.5C254.26,392.74 256.96,395.44 260.21,395.44L272.9,395.44C276.23,395.44 278.84,392.74 278.84,389.5C278.84,386.17 276.23,383.47 272.9,383.47L266.24,383.47L266.24,338.37C266.24,335.13 263.54,332.43 260.21,332.43ZM318.99,332.43C315.75,332.43 313.05,335.13 313.05,338.37L313.05,368.89C313.05,385.72 324.12,397.06 340.5,397.06C359.41,397.06 367.96,382.48 367.96,368.89L367.96,356.29C367.96,353.05 365.26,350.34 362.02,350.34C358.68,350.34 355.98,353.05 355.98,356.29L355.98,368.89C355.98,376.72 351.93,385.09 340.5,385.09C326.46,385.09 325.02,373.84 325.02,368.89L325.02,338.37C325.02,335.13 322.32,332.43 318.99,332.43ZM362.02,332.43C358.68,332.43 355.98,335.13 355.98,338.37C355.98,341.7 358.68,344.4 362.02,344.4C365.26,344.4 367.96,341.7 367.96,338.37C367.96,335.13 365.26,332.43 362.02,332.43ZM432.09,332.43C428.76,332.43 426.15,335.13 426.15,338.37C426.15,341.7 428.76,344.4 432.09,344.4C435.33,344.4 438.03,341.7 438.03,338.37C438.03,335.13 435.33,332.43 432.09,332.43ZM488.11,332.43C485.77,332.43 483.7,333.78 482.71,335.85L458.4,386.89C457.05,389.86 458.31,393.46 461.28,394.9C464.25,396.25 467.76,394.99 469.2,392.02L474.87,380.14L505.12,380.14C507.19,380.14 508.99,379.06 510.07,377.44C512.14,374.38 510.52,371.77 509.53,369.7L493.51,335.85C492.52,333.78 490.36,332.43 488.11,332.43ZM547.51,332.43C544.27,332.43 541.57,335.13 541.57,338.37L541.57,389.5C541.57,392.74 544.27,395.44 547.51,395.44C550.84,395.44 553.54,392.74 553.54,389.5L553.54,373.3L566.59,373.3L569.29,377.62C571,380.41 574.69,381.22 577.48,379.42C582.97,375.91 578.56,370.15 578.56,370.15C584.77,366.64 588.1,360.25 588.1,352.5C588.1,340.26 579.73,332.43 566.86,332.43L547.51,332.43ZM733.19,332.43C729.95,332.43 727.25,335.13 727.25,338.37L727.25,389.5C727.25,392.74 729.95,395.44 733.19,395.44L763.79,395.44C767.12,395.44 769.74,392.74 769.74,389.5C769.74,386.17 767.12,383.47 763.79,383.47L739.22,383.47L739.22,369.61L760.11,369.61C763.44,369.61 766.04,367.18 766.04,363.94C766.04,360.61 763.44,358.18 760.11,358.18L739.22,358.18L739.22,344.4L745.62,344.4C748.85,344.4 751.55,341.7 751.55,338.37C751.55,335.13 748.85,332.43 745.62,332.43L733.19,332.43ZM763.53,332.43C760.2,332.43 757.5,335.13 757.5,338.37C757.5,341.7 760.2,344.4 763.53,344.4C766.77,344.4 769.46,341.7 769.46,338.37C769.46,335.13 766.77,332.43 763.53,332.43ZM399.57,332.47C398.44,332.44 397.28,332.75 396.27,333.42C393.48,335.13 392.67,338.82 394.38,341.61L408.69,363.94L394.38,386.26C392.67,389.05 393.48,392.74 396.27,394.54C399.06,396.25 402.75,395.44 404.46,392.65L415.8,375.01L427.05,392.65C428.85,395.44 432.54,396.25 435.33,394.54C438.03,392.74 438.84,389.05 437.13,386.26L422.82,363.94L427.41,356.73C429.21,353.94 428.4,350.26 425.61,348.54C422.82,346.74 419.13,347.55 417.42,350.34L415.8,352.86L404.46,335.22C403.34,333.48 401.47,332.51 399.57,332.47ZM553.54,344.04L566.86,344.04C573.07,344.04 576.13,347.74 576.13,353.22C576.13,358.26 573.7,362.95 566.59,362.95L553.54,362.95L553.54,344.04ZM621.91,348.73C618.67,348.73 615.96,351.43 615.96,354.67L615.96,389.5C615.96,392.74 618.67,395.44 621.91,395.44C625.24,395.44 627.94,392.74 627.94,389.5L627.94,354.67C627.94,351.43 625.24,348.73 621.91,348.73ZM488.11,352.23L496.57,369.88L479.73,369.88L488.11,352.23ZM658.66,376.81C655.42,376.81 652.72,379.42 652.72,382.75C652.72,386.08 655.42,388.69 658.66,388.69C661.99,388.69 664.69,386.08 664.69,382.75C664.69,379.42 661.99,376.81 658.66,376.81ZM584.05,383.38C580.81,383.38 578.11,386.08 578.11,389.41C578.11,392.65 580.81,395.35 584.05,395.35C587.38,395.35 589.99,392.65 589.99,389.41C589.99,386.08 587.38,383.38 584.05,383.38ZM290.81,383.47C287.48,383.47 284.87,386.17 284.87,389.5C284.87,392.74 287.48,395.44 290.81,395.44C294.14,395.44 296.75,392.74 296.75,389.5C296.75,386.17 294.14,383.47 290.81,383.47ZM512.32,383.47C509.08,383.47 506.38,386.17 506.38,389.5C506.38,392.74 509.08,395.44 512.32,395.44C515.65,395.44 518.35,392.74 518.35,389.5C518.35,386.17 515.65,383.47 512.32,383.47Z" style="fill:rgb(132,132,132);fill-rule:nonzero;"/>
    </g>
</svg>
